<svg xmlns="http://www.w3.org/2000/svg" xml:space="preserve" width="800" height="800" viewBox="0 0 512 512"><path d="M11.084 370.598v-16.879l244.917-141.402 244.915 141.402v16.879L256.001 512z" style="fill:#f91"/><path d="m382.247 336.943-77.291-310.99h-.009c-.941-6.455-5.655-12.757-14.162-17.669-19.131-11.045-50.435-11.045-69.566 0-8.507 4.912-13.222 11.214-14.162 17.669h-.009l-77.292 310.99c-9.104 24.084 2.475 50.31 34.74 68.938 50.328 29.057 132.683 29.057 183.012 0 32.262-18.628 43.842-44.855 34.739-68.938M256.001 495.121V512L11.084 370.598v-16.879z" style="fill:#f18700"/><path d="M256.001 495.121V512l244.915-141.402v-16.879z" style="fill:#d07400"/><path d="M221.218 48.448c-19.131-11.045-19.131-29.119 0-40.164s50.435-11.045 69.566 0 19.131 29.119 0 40.164-50.436 11.045-69.566 0" style="fill:#f91"/><path d="M235.13 40.415c-11.478-6.627-11.478-17.471 0-24.098s30.261-6.627 41.74 0c11.478 6.627 11.478 17.471 0 24.098s-30.261 6.627-41.74 0" style="fill:#d07400"/><path d="m362.967 259.374-26.3-105.819c-3.277 2.736-7.004 5.342-11.215 7.773-38.2 22.054-100.708 22.054-138.907 0-4.211-2.431-7.937-5.037-11.215-7.774l-26.3 105.819c5.071 5.56 11.202 10.804 18.412 15.594 48.705 32.36 128.406 32.36 177.111 0 7.212-4.789 13.345-10.034 18.414-15.593" style="fill:#e0e0e2"/></svg>